<?xml version="1.0" encoding="UTF-8" standalone="no"?>
<!DOCTYPE svg PUBLIC "-//W3C//DTD SVG 1.1//EN"
 "http://www.w3.org/Graphics/SVG/1.1/DTD/svg11.dtd">
<!-- Generated by graphviz version 2.40.1 (20161225.0304)
 -->
<!-- Title: state transitions Pages: 1 -->
<svg width="172pt" height="1336pt"
 viewBox="0.00 0.00 172.00 1336.00" xmlns="http://www.w3.org/2000/svg" xmlns:xlink="http://www.w3.org/1999/xlink">
<g id="graph0" class="graph" transform="scale(1 1) rotate(0) translate(4 1332)">
<title>state transitions</title>
<polygon fill="#ffffff" stroke="transparent" points="-4,4 -4,-1332 168,-1332 168,4 -4,4"/>
<g id="clust1" class="cluster state regular">
<title>cluster_next_state</title>
<path fill="none" stroke="#000000" stroke-width="2" d="M20,-8C20,-8 144,-8 144,-8 150,-8 156,-14 156,-20 156,-20 156,-1308 156,-1308 156,-1314 150,-1320 144,-1320 144,-1320 20,-1320 20,-1320 14,-1320 8,-1314 8,-1308 8,-1308 8,-20 8,-20 8,-14 14,-8 20,-8"/>
<text text-anchor="start" x="54.8208" y="-1301.2" font-family="Helvetica,sans-Serif" font-size="12.00" fill="#000000">next_state</text>
</g>
<!-- next_state -->
<!-- S0 -->
<g id="node2" class="node state regular">
<title>S0</title>
<polygon fill="#ffffff" fill-opacity="0.003922" stroke="transparent" stroke-width="2" points="72,-1282 16,-1282 16,-1246 72,-1246 72,-1282"/>
<text text-anchor="start" x="36.6632" y="-1260.2" font-family="Helvetica,sans-Serif" font-size="12.00" fill="#000000">S0</text>
<path fill="none" stroke="#000000" stroke-width="2" d="M28.3333,-1247C28.3333,-1247 59.6667,-1247 59.6667,-1247 65.3333,-1247 71,-1252.6667 71,-1258.3333 71,-1258.3333 71,-1269.6667 71,-1269.6667 71,-1275.3333 65.3333,-1281 59.6667,-1281 59.6667,-1281 28.3333,-1281 28.3333,-1281 22.6667,-1281 17,-1275.3333 17,-1269.6667 17,-1269.6667 17,-1258.3333 17,-1258.3333 17,-1252.6667 22.6667,-1247 28.3333,-1247"/>
</g>
<!-- S0&#45;&gt;S0 -->
<g id="edge2" class="edge transition">
<title>S0&#45;&gt;S0</title>
<path fill="none" stroke="#000000" d="M72.0183,-1268.8247C83.888,-1269.1883 94,-1267.5801 94,-1264 94,-1261.5387 89.2205,-1260.0094 82.3762,-1259.4121"/>
<polygon fill="#000000" stroke="#000000" points="82.0957,-1255.9049 72.0183,-1259.1753 81.9356,-1262.903 82.0957,-1255.9049"/>
<text text-anchor="start" x="94" y="-1261" font-family="Helvetica,sans-Serif" font-size="10.00" fill="#000000">not (x) &#160;&#160;</text>
</g>
<!-- S1 -->
<g id="node3" class="node state regular">
<title>S1</title>
<polygon fill="#ffffff" fill-opacity="0.003922" stroke="transparent" stroke-width="2" points="123,-1200 67,-1200 67,-1164 123,-1164 123,-1200"/>
<text text-anchor="start" x="87.6632" y="-1178.2" font-family="Helvetica,sans-Serif" font-size="12.00" fill="#000000">S1</text>
<path fill="none" stroke="#000000" stroke-width="2" d="M79.3333,-1165C79.3333,-1165 110.6667,-1165 110.6667,-1165 116.3333,-1165 122,-1170.6667 122,-1176.3333 122,-1176.3333 122,-1187.6667 122,-1187.6667 122,-1193.3333 116.3333,-1199 110.6667,-1199 110.6667,-1199 79.3333,-1199 79.3333,-1199 73.6667,-1199 68,-1193.3333 68,-1187.6667 68,-1187.6667 68,-1176.3333 68,-1176.3333 68,-1170.6667 73.6667,-1165 79.3333,-1165"/>
</g>
<!-- S0&#45;&gt;S1 -->
<g id="edge1" class="edge transition">
<title>S0&#45;&gt;S1</title>
<path fill="none" stroke="#000000" d="M45.4628,-1245.5929C46.8388,-1236.4794 49.5042,-1225.6138 54.663,-1217 56.6951,-1213.607 59.1698,-1210.373 61.8834,-1207.3392"/>
<polygon fill="#000000" stroke="#000000" points="64.3977,-1209.7747 69.0043,-1200.2338 59.4534,-1204.8196 64.3977,-1209.7747"/>
<text text-anchor="start" x="54" y="-1220" font-family="Helvetica,sans-Serif" font-size="10.00" fill="#000000">x &#160;&#160;</text>
</g>
<!-- S1&#45;&gt;S0 -->
<g id="edge4" class="edge transition">
<title>S1&#45;&gt;S0</title>
<path fill="none" stroke="#000000" d="M85.5976,-1200.1352C80.8534,-1208.9806 74.8707,-1219.6934 69,-1229 67.247,-1231.7789 65.3581,-1234.6365 63.4318,-1237.4636"/>
<polygon fill="#000000" stroke="#000000" points="60.5031,-1235.5442 57.639,-1245.7446 66.239,-1239.5567 60.5031,-1235.5442"/>
<text text-anchor="start" x="76" y="-1220" font-family="Helvetica,sans-Serif" font-size="10.00" fill="#000000">not (x) &#160;&#160;</text>
</g>
<!-- S2 -->
<g id="node4" class="node state regular">
<title>S2</title>
<polygon fill="#ffffff" fill-opacity="0.003922" stroke="transparent" stroke-width="2" points="124,-1118 68,-1118 68,-1082 124,-1082 124,-1118"/>
<text text-anchor="start" x="88.6632" y="-1096.2" font-family="Helvetica,sans-Serif" font-size="12.00" fill="#000000">S2</text>
<path fill="none" stroke="#000000" stroke-width="2" d="M80.3333,-1083C80.3333,-1083 111.6667,-1083 111.6667,-1083 117.3333,-1083 123,-1088.6667 123,-1094.3333 123,-1094.3333 123,-1105.6667 123,-1105.6667 123,-1111.3333 117.3333,-1117 111.6667,-1117 111.6667,-1117 80.3333,-1117 80.3333,-1117 74.6667,-1117 69,-1111.3333 69,-1105.6667 69,-1105.6667 69,-1094.3333 69,-1094.3333 69,-1088.6667 74.6667,-1083 80.3333,-1083"/>
</g>
<!-- S1&#45;&gt;S2 -->
<g id="edge3" class="edge transition">
<title>S1&#45;&gt;S2</title>
<path fill="none" stroke="#000000" d="M66.9671,-1164.4082C57.627,-1156.1935 50.716,-1145.8421 55.663,-1135 57.2169,-1131.5943 59.284,-1128.3923 61.6638,-1125.4144"/>
<polygon fill="#000000" stroke="#000000" points="64.2655,-1127.7567 68.5557,-1118.0694 59.1608,-1122.9669 64.2655,-1127.7567"/>
<text text-anchor="start" x="55" y="-1138" font-family="Helvetica,sans-Serif" font-size="10.00" fill="#000000">x &#160;&#160;</text>
</g>
<!-- S2&#45;&gt;S1 -->
<g id="edge6" class="edge transition">
<title>S2&#45;&gt;S1</title>
<path fill="none" stroke="#000000" d="M95.7787,-1118.1476C95.6519,-1128.5421 95.49,-1141.816 95.3468,-1153.5658"/>
<polygon fill="#000000" stroke="#000000" points="91.8442,-1153.7596 95.2219,-1163.8015 98.8437,-1153.845 91.8442,-1153.7596"/>
<text text-anchor="start" x="95" y="-1138" font-family="Helvetica,sans-Serif" font-size="10.00" fill="#000000">not (x) &#160;&#160;</text>
</g>
<!-- S3 -->
<g id="node5" class="node state regular">
<title>S3</title>
<polygon fill="#ffffff" fill-opacity="0.003922" stroke="transparent" stroke-width="2" points="124,-1036 68,-1036 68,-1000 124,-1000 124,-1036"/>
<text text-anchor="start" x="88.6632" y="-1014.2" font-family="Helvetica,sans-Serif" font-size="12.00" fill="#000000">S3</text>
<path fill="none" stroke="#000000" stroke-width="2" d="M80.3333,-1001C80.3333,-1001 111.6667,-1001 111.6667,-1001 117.3333,-1001 123,-1006.6667 123,-1012.3333 123,-1012.3333 123,-1023.6667 123,-1023.6667 123,-1029.3333 117.3333,-1035 111.6667,-1035 111.6667,-1035 80.3333,-1035 80.3333,-1035 74.6667,-1035 69,-1029.3333 69,-1023.6667 69,-1023.6667 69,-1012.3333 69,-1012.3333 69,-1006.6667 74.6667,-1001 80.3333,-1001"/>
</g>
<!-- S2&#45;&gt;S3 -->
<g id="edge5" class="edge transition">
<title>S2&#45;&gt;S3</title>
<path fill="none" stroke="#000000" d="M69.2242,-1081.8233C64.13,-1076.998 59.5075,-1071.3383 56.663,-1065 53.2185,-1057.3248 55.6536,-1049.9075 60.6652,-1043.3208"/>
<polygon fill="#000000" stroke="#000000" points="63.241,-1045.6907 67.5339,-1036.0046 58.1376,-1040.8995 63.241,-1045.6907"/>
<text text-anchor="start" x="56" y="-1056" font-family="Helvetica,sans-Serif" font-size="10.00" fill="#000000">x &#160;&#160;</text>
</g>
<!-- S3&#45;&gt;S2 -->
<g id="edge8" class="edge transition">
<title>S3&#45;&gt;S2</title>
<path fill="none" stroke="#000000" d="M96,-1036.1476C96,-1046.5421 96,-1059.816 96,-1071.5658"/>
<polygon fill="#000000" stroke="#000000" points="92.5001,-1071.8015 96,-1081.8015 99.5001,-1071.8016 92.5001,-1071.8015"/>
<text text-anchor="start" x="96" y="-1056" font-family="Helvetica,sans-Serif" font-size="10.00" fill="#000000">not (x) &#160;&#160;</text>
</g>
<!-- S4 -->
<g id="node6" class="node state regular">
<title>S4</title>
<polygon fill="#ffffff" fill-opacity="0.003922" stroke="transparent" stroke-width="2" points="125,-954 69,-954 69,-918 125,-918 125,-954"/>
<text text-anchor="start" x="89.6632" y="-932.2" font-family="Helvetica,sans-Serif" font-size="12.00" fill="#000000">S4</text>
<path fill="none" stroke="#000000" stroke-width="2" d="M81.3333,-919C81.3333,-919 112.6667,-919 112.6667,-919 118.3333,-919 124,-924.6667 124,-930.3333 124,-930.3333 124,-941.6667 124,-941.6667 124,-947.3333 118.3333,-953 112.6667,-953 112.6667,-953 81.3333,-953 81.3333,-953 75.6667,-953 70,-947.3333 70,-941.6667 70,-941.6667 70,-930.3333 70,-930.3333 70,-924.6667 75.6667,-919 81.3333,-919"/>
</g>
<!-- S3&#45;&gt;S4 -->
<g id="edge7" class="edge transition">
<title>S3&#45;&gt;S4</title>
<path fill="none" stroke="#000000" d="M68.1872,-999.8871C59.3318,-991.7313 52.9205,-981.5676 57.663,-971 59.1297,-967.7318 61.0691,-964.644 63.3022,-961.758"/>
<polygon fill="#000000" stroke="#000000" points="66.0662,-963.9215 70.2242,-954.1767 60.8968,-959.2017 66.0662,-963.9215"/>
<text text-anchor="start" x="57" y="-974" font-family="Helvetica,sans-Serif" font-size="10.00" fill="#000000">x &#160;&#160;</text>
</g>
<!-- S4&#45;&gt;S3 -->
<g id="edge10" class="edge transition">
<title>S4&#45;&gt;S3</title>
<path fill="none" stroke="#000000" d="M96.7787,-954.1476C96.6519,-964.5421 96.49,-977.816 96.3468,-989.5658"/>
<polygon fill="#000000" stroke="#000000" points="92.8442,-989.7596 96.2219,-999.8015 99.8437,-989.845 92.8442,-989.7596"/>
<text text-anchor="start" x="96" y="-974" font-family="Helvetica,sans-Serif" font-size="10.00" fill="#000000">not (x) &#160;&#160;</text>
</g>
<!-- S5 -->
<g id="node7" class="node state regular">
<title>S5</title>
<polygon fill="#ffffff" fill-opacity="0.003922" stroke="transparent" stroke-width="2" points="126,-872 70,-872 70,-836 126,-836 126,-872"/>
<text text-anchor="start" x="90.6632" y="-850.2" font-family="Helvetica,sans-Serif" font-size="12.00" fill="#000000">S5</text>
<path fill="none" stroke="#000000" stroke-width="2" d="M82.3333,-837C82.3333,-837 113.6667,-837 113.6667,-837 119.3333,-837 125,-842.6667 125,-848.3333 125,-848.3333 125,-859.6667 125,-859.6667 125,-865.3333 119.3333,-871 113.6667,-871 113.6667,-871 82.3333,-871 82.3333,-871 76.6667,-871 71,-865.3333 71,-859.6667 71,-859.6667 71,-848.3333 71,-848.3333 71,-842.6667 76.6667,-837 82.3333,-837"/>
</g>
<!-- S4&#45;&gt;S5 -->
<g id="edge9" class="edge transition">
<title>S4&#45;&gt;S5</title>
<path fill="none" stroke="#000000" d="M69.1872,-917.8871C60.3318,-909.7313 53.9205,-899.5676 58.663,-889 60.1297,-885.7318 62.0691,-882.644 64.3022,-879.758"/>
<polygon fill="#000000" stroke="#000000" points="67.0662,-881.9215 71.2242,-872.1767 61.8968,-877.2017 67.0662,-881.9215"/>
<text text-anchor="start" x="58" y="-892" font-family="Helvetica,sans-Serif" font-size="10.00" fill="#000000">x &#160;&#160;</text>
</g>
<!-- S5&#45;&gt;S4 -->
<g id="edge12" class="edge transition">
<title>S5&#45;&gt;S4</title>
<path fill="none" stroke="#000000" d="M97.7787,-872.1476C97.6519,-882.5421 97.49,-895.816 97.3468,-907.5658"/>
<polygon fill="#000000" stroke="#000000" points="93.8442,-907.7596 97.2219,-917.8015 100.8437,-907.845 93.8442,-907.7596"/>
<text text-anchor="start" x="97" y="-892" font-family="Helvetica,sans-Serif" font-size="10.00" fill="#000000">not (x) &#160;&#160;</text>
</g>
<!-- S6 -->
<g id="node8" class="node state regular">
<title>S6</title>
<polygon fill="#ffffff" fill-opacity="0.003922" stroke="transparent" stroke-width="2" points="127,-790 71,-790 71,-754 127,-754 127,-790"/>
<text text-anchor="start" x="91.6632" y="-768.2" font-family="Helvetica,sans-Serif" font-size="12.00" fill="#000000">S6</text>
<path fill="none" stroke="#000000" stroke-width="2" d="M83.3333,-755C83.3333,-755 114.6667,-755 114.6667,-755 120.3333,-755 126,-760.6667 126,-766.3333 126,-766.3333 126,-777.6667 126,-777.6667 126,-783.3333 120.3333,-789 114.6667,-789 114.6667,-789 83.3333,-789 83.3333,-789 77.6667,-789 72,-783.3333 72,-777.6667 72,-777.6667 72,-766.3333 72,-766.3333 72,-760.6667 77.6667,-755 83.3333,-755"/>
</g>
<!-- S5&#45;&gt;S6 -->
<g id="edge11" class="edge transition">
<title>S5&#45;&gt;S6</title>
<path fill="none" stroke="#000000" d="M70.9053,-835.8096C62.2796,-827.6407 56.0366,-817.4881 60.663,-807 62.0883,-803.7687 63.9756,-800.7066 66.1501,-797.8375"/>
<polygon fill="#000000" stroke="#000000" points="68.8453,-800.0739 72.8932,-790.2829 63.623,-795.4126 68.8453,-800.0739"/>
<text text-anchor="start" x="60" y="-810" font-family="Helvetica,sans-Serif" font-size="10.00" fill="#000000">x &#160;&#160;</text>
</g>
<!-- S6&#45;&gt;S5 -->
<g id="edge14" class="edge transition">
<title>S6&#45;&gt;S5</title>
<path fill="none" stroke="#000000" d="M98.7787,-790.1476C98.6519,-800.5421 98.49,-813.816 98.3468,-825.5658"/>
<polygon fill="#000000" stroke="#000000" points="94.8442,-825.7596 98.2219,-835.8015 101.8437,-825.845 94.8442,-825.7596"/>
<text text-anchor="start" x="98" y="-810" font-family="Helvetica,sans-Serif" font-size="10.00" fill="#000000">not (x) &#160;&#160;</text>
</g>
<!-- S7 -->
<g id="node9" class="node state regular">
<title>S7</title>
<polygon fill="#ffffff" fill-opacity="0.003922" stroke="transparent" stroke-width="2" points="128,-708 72,-708 72,-672 128,-672 128,-708"/>
<text text-anchor="start" x="92.6632" y="-686.2" font-family="Helvetica,sans-Serif" font-size="12.00" fill="#000000">S7</text>
<path fill="none" stroke="#000000" stroke-width="2" d="M84.3333,-673C84.3333,-673 115.6667,-673 115.6667,-673 121.3333,-673 127,-678.6667 127,-684.3333 127,-684.3333 127,-695.6667 127,-695.6667 127,-701.3333 121.3333,-707 115.6667,-707 115.6667,-707 84.3333,-707 84.3333,-707 78.6667,-707 73,-701.3333 73,-695.6667 73,-695.6667 73,-684.3333 73,-684.3333 73,-678.6667 78.6667,-673 84.3333,-673"/>
</g>
<!-- S6&#45;&gt;S7 -->
<g id="edge13" class="edge transition">
<title>S6&#45;&gt;S7</title>
<path fill="none" stroke="#000000" d="M72.6233,-753.7337C64.2273,-745.5519 58.1526,-735.4103 62.663,-725 64.0836,-721.7211 65.9794,-718.6087 68.166,-715.6912"/>
<polygon fill="#000000" stroke="#000000" points="70.9526,-717.8232 74.9452,-708.0094 65.7041,-713.1913 70.9526,-717.8232"/>
<text text-anchor="start" x="62" y="-728" font-family="Helvetica,sans-Serif" font-size="10.00" fill="#000000">x &#160;&#160;</text>
</g>
<!-- S7&#45;&gt;S6 -->
<g id="edge16" class="edge transition">
<title>S7&#45;&gt;S6</title>
<path fill="none" stroke="#000000" d="M99.7787,-708.1476C99.6519,-718.5421 99.49,-731.816 99.3468,-743.5658"/>
<polygon fill="#000000" stroke="#000000" points="95.8442,-743.7596 99.2219,-753.8015 102.8437,-743.845 95.8442,-743.7596"/>
<text text-anchor="start" x="99" y="-728" font-family="Helvetica,sans-Serif" font-size="10.00" fill="#000000">not (x) &#160;&#160;</text>
</g>
<!-- S8 -->
<g id="node10" class="node state regular">
<title>S8</title>
<polygon fill="#ffffff" fill-opacity="0.003922" stroke="transparent" stroke-width="2" points="130,-626 74,-626 74,-590 130,-590 130,-626"/>
<text text-anchor="start" x="94.6632" y="-604.2" font-family="Helvetica,sans-Serif" font-size="12.00" fill="#000000">S8</text>
<path fill="none" stroke="#000000" stroke-width="2" d="M86.3333,-591C86.3333,-591 117.6667,-591 117.6667,-591 123.3333,-591 129,-596.6667 129,-602.3333 129,-602.3333 129,-613.6667 129,-613.6667 129,-619.3333 123.3333,-625 117.6667,-625 117.6667,-625 86.3333,-625 86.3333,-625 80.6667,-625 75,-619.3333 75,-613.6667 75,-613.6667 75,-602.3333 75,-602.3333 75,-596.6667 80.6667,-591 86.3333,-591"/>
</g>
<!-- S7&#45;&gt;S8 -->
<g id="edge15" class="edge transition">
<title>S7&#45;&gt;S8</title>
<path fill="none" stroke="#000000" d="M74.9894,-671.5572C67.0411,-663.3456 61.3131,-653.2294 65.663,-643 67.0415,-639.7582 68.8838,-636.6711 71.01,-633.7702"/>
<polygon fill="#000000" stroke="#000000" points="73.7306,-635.9746 77.605,-626.1136 68.4268,-631.4062 73.7306,-635.9746"/>
<text text-anchor="start" x="65" y="-646" font-family="Helvetica,sans-Serif" font-size="10.00" fill="#000000">x &#160;&#160;</text>
</g>
<!-- S8&#45;&gt;S7 -->
<g id="edge18" class="edge transition">
<title>S8&#45;&gt;S7</title>
<path fill="none" stroke="#000000" d="M101.5574,-626.1476C101.3039,-636.5421 100.9801,-649.816 100.6935,-661.5658"/>
<polygon fill="#000000" stroke="#000000" points="97.1888,-661.7191 100.4439,-671.8015 104.1867,-661.8899 97.1888,-661.7191"/>
<text text-anchor="start" x="101" y="-646" font-family="Helvetica,sans-Serif" font-size="10.00" fill="#000000">not (x) &#160;&#160;</text>
</g>
<!-- S9 -->
<g id="node11" class="node state regular">
<title>S9</title>
<polygon fill="#ffffff" fill-opacity="0.003922" stroke="transparent" stroke-width="2" points="114,-544 58,-544 58,-508 114,-508 114,-544"/>
<text text-anchor="start" x="78.6632" y="-522.2" font-family="Helvetica,sans-Serif" font-size="12.00" fill="#000000">S9</text>
<path fill="none" stroke="#000000" stroke-width="2" d="M70.3333,-509C70.3333,-509 101.6667,-509 101.6667,-509 107.3333,-509 113,-514.6667 113,-520.3333 113,-520.3333 113,-531.6667 113,-531.6667 113,-537.3333 107.3333,-543 101.6667,-543 101.6667,-543 70.3333,-543 70.3333,-543 64.6667,-543 59,-537.3333 59,-531.6667 59,-531.6667 59,-520.3333 59,-520.3333 59,-514.6667 64.6667,-509 70.3333,-509"/>
</g>
<!-- S8&#45;&gt;S9 -->
<g id="edge17" class="edge transition">
<title>S8&#45;&gt;S9</title>
<path fill="none" stroke="#000000" d="M80.5823,-589.8571C76.1366,-584.8926 72.0744,-579.1634 69.663,-573 67.267,-566.8759 67.7405,-560.238 69.5889,-553.9334"/>
<polygon fill="#000000" stroke="#000000" points="72.9298,-555.0061 73.4104,-544.4222 66.4344,-552.3964 72.9298,-555.0061"/>
<text text-anchor="start" x="69" y="-564" font-family="Helvetica,sans-Serif" font-size="10.00" fill="#000000">x &#160;&#160;</text>
</g>
<!-- S9&#45;&gt;S8 -->
<g id="edge20" class="edge transition">
<title>S9&#45;&gt;S8</title>
<path fill="none" stroke="#000000" d="M89.541,-544.1476C91.5899,-554.6482 94.2121,-568.0872 96.5219,-579.925"/>
<polygon fill="#000000" stroke="#000000" points="93.0987,-580.6569 98.4491,-589.8015 99.9691,-579.3163 93.0987,-580.6569"/>
<text text-anchor="start" x="95" y="-564" font-family="Helvetica,sans-Serif" font-size="10.00" fill="#000000">not (x) &#160;&#160;</text>
</g>
<!-- S10 -->
<g id="node12" class="node state regular">
<title>S10</title>
<polygon fill="#ffffff" fill-opacity="0.003922" stroke="transparent" stroke-width="2" points="128,-462 72,-462 72,-426 128,-426 128,-462"/>
<text text-anchor="start" x="89.3278" y="-440.2" font-family="Helvetica,sans-Serif" font-size="12.00" fill="#000000">S10</text>
<path fill="none" stroke="#000000" stroke-width="2" d="M84.3333,-427C84.3333,-427 115.6667,-427 115.6667,-427 121.3333,-427 127,-432.6667 127,-438.3333 127,-438.3333 127,-449.6667 127,-449.6667 127,-455.3333 121.3333,-461 115.6667,-461 115.6667,-461 84.3333,-461 84.3333,-461 78.6667,-461 73,-455.3333 73,-449.6667 73,-449.6667 73,-438.3333 73,-438.3333 73,-432.6667 78.6667,-427 84.3333,-427"/>
</g>
<!-- S9&#45;&gt;S10 -->
<g id="edge19" class="edge transition">
<title>S9&#45;&gt;S10</title>
<path fill="none" stroke="#000000" d="M68.926,-507.9052C62.8595,-499.2561 58.4617,-488.6969 62.663,-479 64.0836,-475.7211 65.9794,-472.6087 68.166,-469.6912"/>
<polygon fill="#000000" stroke="#000000" points="70.9526,-471.8232 74.9452,-462.0094 65.7041,-467.1913 70.9526,-471.8232"/>
<text text-anchor="start" x="62" y="-482" font-family="Helvetica,sans-Serif" font-size="10.00" fill="#000000">x &#160;&#160;</text>
</g>
<!-- S10&#45;&gt;S9 -->
<g id="edge22" class="edge transition">
<title>S10&#45;&gt;S9</title>
<path fill="none" stroke="#000000" d="M96.9016,-462.1476C95.1088,-472.6482 92.8144,-486.0872 90.7933,-497.925"/>
<polygon fill="#000000" stroke="#000000" points="87.34,-497.3551 89.1071,-507.8015 94.2402,-498.5332 87.34,-497.3551"/>
<text text-anchor="start" x="93" y="-482" font-family="Helvetica,sans-Serif" font-size="10.00" fill="#000000">not (x) &#160;&#160;</text>
</g>
<!-- S11 -->
<g id="node13" class="node state regular">
<title>S11</title>
<polygon fill="#ffffff" fill-opacity="0.003922" stroke="transparent" stroke-width="2" points="128,-380 72,-380 72,-344 128,-344 128,-380"/>
<text text-anchor="start" x="89.3278" y="-358.2" font-family="Helvetica,sans-Serif" font-size="12.00" fill="#000000">S11</text>
<path fill="none" stroke="#000000" stroke-width="2" d="M84.3333,-345C84.3333,-345 115.6667,-345 115.6667,-345 121.3333,-345 127,-350.6667 127,-356.3333 127,-356.3333 127,-367.6667 127,-367.6667 127,-373.3333 121.3333,-379 115.6667,-379 115.6667,-379 84.3333,-379 84.3333,-379 78.6667,-379 73,-373.3333 73,-367.6667 73,-367.6667 73,-356.3333 73,-356.3333 73,-350.6667 78.6667,-345 84.3333,-345"/>
</g>
<!-- S10&#45;&gt;S11 -->
<g id="edge21" class="edge transition">
<title>S10&#45;&gt;S11</title>
<path fill="none" stroke="#000000" d="M72.9728,-425.8392C64.3585,-417.6752 58.1058,-407.5184 62.663,-397 64.0836,-393.7211 65.9794,-390.6087 68.166,-387.6912"/>
<polygon fill="#000000" stroke="#000000" points="70.9526,-389.8232 74.9452,-380.0094 65.7041,-385.1913 70.9526,-389.8232"/>
<text text-anchor="start" x="62" y="-400" font-family="Helvetica,sans-Serif" font-size="10.00" fill="#000000">x &#160;&#160;</text>
</g>
<!-- S11&#45;&gt;S10 -->
<g id="edge24" class="edge transition">
<title>S11&#45;&gt;S10</title>
<path fill="none" stroke="#000000" d="M100,-380.1476C100,-390.5421 100,-403.816 100,-415.5658"/>
<polygon fill="#000000" stroke="#000000" points="96.5001,-415.8015 100,-425.8015 103.5001,-415.8016 96.5001,-415.8015"/>
<text text-anchor="start" x="100" y="-400" font-family="Helvetica,sans-Serif" font-size="10.00" fill="#000000">not (x) &#160;&#160;</text>
</g>
<!-- S12 -->
<g id="node14" class="node state regular">
<title>S12</title>
<polygon fill="#ffffff" fill-opacity="0.003922" stroke="transparent" stroke-width="2" points="129,-298 73,-298 73,-262 129,-262 129,-298"/>
<text text-anchor="start" x="90.3278" y="-276.2" font-family="Helvetica,sans-Serif" font-size="12.00" fill="#000000">S12</text>
<path fill="none" stroke="#000000" stroke-width="2" d="M85.3333,-263C85.3333,-263 116.6667,-263 116.6667,-263 122.3333,-263 128,-268.6667 128,-274.3333 128,-274.3333 128,-285.6667 128,-285.6667 128,-291.3333 122.3333,-297 116.6667,-297 116.6667,-297 85.3333,-297 85.3333,-297 79.6667,-297 74,-291.3333 74,-285.6667 74,-285.6667 74,-274.3333 74,-274.3333 74,-268.6667 79.6667,-263 85.3333,-263"/>
</g>
<!-- S11&#45;&gt;S12 -->
<g id="edge23" class="edge transition">
<title>S11&#45;&gt;S12</title>
<path fill="none" stroke="#000000" d="M72.9053,-343.8096C64.2796,-335.6407 58.0366,-325.4881 62.663,-315 64.0883,-311.7687 65.9756,-308.7066 68.1501,-305.8375"/>
<polygon fill="#000000" stroke="#000000" points="70.8453,-308.0739 74.8932,-298.2829 65.623,-303.4126 70.8453,-308.0739"/>
<text text-anchor="start" x="62" y="-318" font-family="Helvetica,sans-Serif" font-size="10.00" fill="#000000">x &#160;&#160;</text>
</g>
<!-- S12&#45;&gt;S11 -->
<g id="edge26" class="edge transition">
<title>S12&#45;&gt;S11</title>
<path fill="none" stroke="#000000" d="M100.7787,-298.1476C100.6519,-308.5421 100.49,-321.816 100.3468,-333.5658"/>
<polygon fill="#000000" stroke="#000000" points="96.8442,-333.7596 100.2219,-343.8015 103.8437,-333.845 96.8442,-333.7596"/>
<text text-anchor="start" x="100" y="-318" font-family="Helvetica,sans-Serif" font-size="10.00" fill="#000000">not (x) &#160;&#160;</text>
</g>
<!-- S13 -->
<g id="node15" class="node state regular">
<title>S13</title>
<polygon fill="#ffffff" fill-opacity="0.003922" stroke="transparent" stroke-width="2" points="129,-216 73,-216 73,-180 129,-180 129,-216"/>
<text text-anchor="start" x="90.3278" y="-194.2" font-family="Helvetica,sans-Serif" font-size="12.00" fill="#000000">S13</text>
<path fill="none" stroke="#000000" stroke-width="2" d="M85.3333,-181C85.3333,-181 116.6667,-181 116.6667,-181 122.3333,-181 128,-186.6667 128,-192.3333 128,-192.3333 128,-203.6667 128,-203.6667 128,-209.3333 122.3333,-215 116.6667,-215 116.6667,-215 85.3333,-215 85.3333,-215 79.6667,-215 74,-209.3333 74,-203.6667 74,-203.6667 74,-192.3333 74,-192.3333 74,-186.6667 79.6667,-181 85.3333,-181"/>
</g>
<!-- S12&#45;&gt;S13 -->
<g id="edge25" class="edge transition">
<title>S12&#45;&gt;S13</title>
<path fill="none" stroke="#000000" d="M74.6922,-261.7633C66.3079,-253.5865 60.2233,-243.4406 64.663,-233 66.0415,-229.7582 67.8838,-226.6711 70.01,-223.7702"/>
<polygon fill="#000000" stroke="#000000" points="72.7306,-225.9746 76.605,-216.1136 67.4268,-221.4062 72.7306,-225.9746"/>
<text text-anchor="start" x="64" y="-236" font-family="Helvetica,sans-Serif" font-size="10.00" fill="#000000">x &#160;&#160;</text>
</g>
<!-- S13&#45;&gt;S12 -->
<g id="edge28" class="edge transition">
<title>S13&#45;&gt;S12</title>
<path fill="none" stroke="#000000" d="M101,-216.1476C101,-226.5421 101,-239.816 101,-251.5658"/>
<polygon fill="#000000" stroke="#000000" points="97.5001,-251.8015 101,-261.8015 104.5001,-251.8016 97.5001,-251.8015"/>
<text text-anchor="start" x="101" y="-236" font-family="Helvetica,sans-Serif" font-size="10.00" fill="#000000">not (x) &#160;&#160;</text>
</g>
<!-- S14 -->
<g id="node16" class="node state regular">
<title>S14</title>
<polygon fill="#ffffff" fill-opacity="0.003922" stroke="transparent" stroke-width="2" points="124,-134 68,-134 68,-98 124,-98 124,-134"/>
<text text-anchor="start" x="85.3278" y="-112.2" font-family="Helvetica,sans-Serif" font-size="12.00" fill="#000000">S14</text>
<path fill="none" stroke="#000000" stroke-width="2" d="M80.3333,-99C80.3333,-99 111.6667,-99 111.6667,-99 117.3333,-99 123,-104.6667 123,-110.3333 123,-110.3333 123,-121.6667 123,-121.6667 123,-127.3333 117.3333,-133 111.6667,-133 111.6667,-133 80.3333,-133 80.3333,-133 74.6667,-133 69,-127.3333 69,-121.6667 69,-121.6667 69,-110.3333 69,-110.3333 69,-104.6667 74.6667,-99 80.3333,-99"/>
</g>
<!-- S13&#45;&gt;S14 -->
<g id="edge27" class="edge transition">
<title>S13&#45;&gt;S14</title>
<path fill="none" stroke="#000000" d="M74.8932,-179.7171C69.9291,-174.8973 65.4273,-169.2667 62.663,-163 59.4835,-155.792 61.4148,-148.5711 65.6133,-142.0273"/>
<polygon fill="#000000" stroke="#000000" points="68.4031,-144.1431 71.9301,-134.1525 62.9427,-139.763 68.4031,-144.1431"/>
<text text-anchor="start" x="62" y="-154" font-family="Helvetica,sans-Serif" font-size="10.00" fill="#000000">x &#160;&#160;</text>
</g>
<!-- S14&#45;&gt;S13 -->
<g id="edge30" class="edge transition">
<title>S14&#45;&gt;S13</title>
<path fill="none" stroke="#000000" d="M97.1066,-134.1476C97.7404,-144.5421 98.5498,-157.816 99.2662,-169.5658"/>
<polygon fill="#000000" stroke="#000000" points="95.7881,-170.0331 99.8903,-179.8015 102.7751,-169.607 95.7881,-170.0331"/>
<text text-anchor="start" x="98" y="-154" font-family="Helvetica,sans-Serif" font-size="10.00" fill="#000000">not (x) &#160;&#160;</text>
</g>
<!-- S15 -->
<g id="node17" class="node state regular">
<title>S15</title>
<polygon fill="#ffffff" fill-opacity="0.003922" stroke="transparent" stroke-width="2" points="98,-52 42,-52 42,-16 98,-16 98,-52"/>
<text text-anchor="start" x="59.3278" y="-30.2" font-family="Helvetica,sans-Serif" font-size="12.00" fill="#000000">S15</text>
<path fill="none" stroke="#000000" stroke-width="2" d="M54.3333,-17C54.3333,-17 85.6667,-17 85.6667,-17 91.3333,-17 97,-22.6667 97,-28.3333 97,-28.3333 97,-39.6667 97,-39.6667 97,-45.3333 91.3333,-51 85.6667,-51 85.6667,-51 54.3333,-51 54.3333,-51 48.6667,-51 43,-45.3333 43,-39.6667 43,-39.6667 43,-28.3333 43,-28.3333 43,-22.6667 48.6667,-17 54.3333,-17"/>
</g>
<!-- S14&#45;&gt;S15 -->
<g id="edge29" class="edge transition">
<title>S14&#45;&gt;S15</title>
<path fill="none" stroke="#000000" d="M69.8932,-97.7171C64.9291,-92.8973 60.4273,-87.2667 57.663,-81 55.0265,-75.0229 55.1138,-68.3614 56.5184,-61.9763"/>
<polygon fill="#000000" stroke="#000000" points="59.8978,-62.8992 59.6077,-52.3083 53.2299,-60.7685 59.8978,-62.8992"/>
<text text-anchor="start" x="57" y="-72" font-family="Helvetica,sans-Serif" font-size="10.00" fill="#000000">x &#160;&#160;</text>
</g>
<!-- S15&#45;&gt;S14 -->
<g id="edge32" class="edge transition">
<title>S15&#45;&gt;S14</title>
<path fill="none" stroke="#000000" d="M75.7541,-52.1476C79.0836,-62.6482 83.3447,-76.0872 87.0982,-87.925"/>
<polygon fill="#000000" stroke="#000000" points="83.8709,-89.3271 90.2298,-97.8015 90.5436,-87.2114 83.8709,-89.3271"/>
<text text-anchor="start" x="84" y="-72" font-family="Helvetica,sans-Serif" font-size="10.00" fill="#000000">not (x) &#160;&#160;</text>
</g>
<!-- S15&#45;&gt;S15 -->
<g id="edge31" class="edge transition">
<title>S15&#45;&gt;S15</title>
<path fill="none" stroke="#000000" d="M98.0183,-38.8247C109.888,-39.1883 120,-37.5801 120,-34 120,-31.5387 115.2205,-30.0094 108.3762,-29.4121"/>
<polygon fill="#000000" stroke="#000000" points="108.0957,-25.9049 98.0183,-29.1753 107.9356,-32.903 108.0957,-25.9049"/>
<text text-anchor="start" x="120" y="-31" font-family="Helvetica,sans-Serif" font-size="10.00" fill="#000000">x &#160;&#160;</text>
</g>
</g>
</svg>
